<?xml version="1.0" encoding="utf-8" standalone="no"?>
<!DOCTYPE svg PUBLIC "-//W3C//DTD SVG 1.1//EN"
  "http://www.w3.org/Graphics/SVG/1.1/DTD/svg11.dtd">
<svg xmlns:xlink="http://www.w3.org/1999/xlink" width="587.238628pt" height="549.429866pt" viewBox="0 0 587.238628 549.429866" xmlns="http://www.w3.org/2000/svg" version="1.1">
 <metadata>
  <rdf:RDF xmlns:dc="http://purl.org/dc/elements/1.1/" xmlns:cc="http://creativecommons.org/ns#" xmlns:rdf="http://www.w3.org/1999/02/22-rdf-syntax-ns#">
   <cc:Work>
    <dc:type rdf:resource="http://purl.org/dc/dcmitype/StillImage"/>
    <dc:date>2025-09-30T15:46:53.774225</dc:date>
    <dc:format>image/svg+xml</dc:format>
    <dc:creator>
     <cc:Agent>
      <dc:title>Matplotlib v3.10.3, https://matplotlib.org/</dc:title>
     </cc:Agent>
    </dc:creator>
   </cc:Work>
  </rdf:RDF>
 </metadata>
 <defs>
  <style type="text/css">*{stroke-linejoin: round; stroke-linecap: butt}</style>
 </defs>
 <g id="figure_1">
  <g id="patch_1">
   <path d="M 0 549.429866 
L 587.238628 549.429866 
L 587.238628 0 
L 0 0 
z
" style="fill: #ffffff"/>
  </g>
  <g id="axes_1">
   <g id="patch_2">
    <path d="M 496.334628 312.685812 
C 496.334628 283.564556 490.598375 254.726467 479.454153 227.821935 
C 468.309931 200.917402 451.974466 176.469651 431.382628 155.877813 
C 410.79079 135.285975 386.343039 118.95051 359.438506 107.806287 
C 332.533973 96.662065 303.695884 90.925812 274.574628 90.925812 
C 245.453371 90.925812 216.615283 96.662065 189.71075 107.806287 
C 162.806217 118.95051 138.358466 135.285975 117.766628 155.877813 
C 97.17479 176.469651 80.839325 200.917402 69.695103 227.821935 
C 58.55088 254.726467 52.814628 283.564556 52.814628 312.685812 
C 52.814628 341.807069 58.55088 370.645158 69.695103 397.54969 
C 80.839325 424.454223 97.17479 448.901974 117.766628 469.493812 
C 138.358466 490.08565 162.806217 506.421115 189.71075 517.565338 
C 216.615283 528.70956 245.453371 534.445812 274.574628 534.445812 
C 303.695884 534.445812 332.533973 528.70956 359.438506 517.565338 
C 386.343039 506.421115 410.79079 490.08565 431.382628 469.493812 
C 451.974466 448.901974 468.309931 424.454223 479.454153 397.54969 
C 490.598375 370.645158 496.334628 341.807069 496.334628 312.685812 
M 274.574628 312.685812 
C 274.574628 312.685812 274.574628 312.685812 274.574628 312.685812 
C 274.574628 312.685812 274.574628 312.685812 274.574628 312.685812 
C 274.574628 312.685812 274.574628 312.685812 274.574628 312.685812 
C 274.574628 312.685812 274.574628 312.685812 274.574628 312.685812 
C 274.574628 312.685812 274.574628 312.685812 274.574628 312.685812 
C 274.574628 312.685812 274.574628 312.685812 274.574628 312.685812 
C 274.574628 312.685812 274.574628 312.685812 274.574628 312.685812 
C 274.574628 312.685812 274.574628 312.685812 274.574628 312.685812 
C 274.574628 312.685812 274.574628 312.685812 274.574628 312.685812 
C 274.574628 312.685812 274.574628 312.685812 274.574628 312.685812 
C 274.574628 312.685812 274.574628 312.685812 274.574628 312.685812 
C 274.574628 312.685812 274.574628 312.685812 274.574628 312.685812 
C 274.574628 312.685812 274.574628 312.685812 274.574628 312.685812 
C 274.574628 312.685812 274.574628 312.685812 274.574628 312.685812 
C 274.574628 312.685812 274.574628 312.685812 274.574628 312.685812 
C 274.574628 312.685812 274.574628 312.685812 274.574628 312.685812 
z
" style="fill: #ffffff"/>
   </g>
   <g id="patch_3">
    <path d="M 345.134628 312.685812 
L 311.953323 197.646016 
L 247.09402 292.719982 
L 266.774875 318.352665 
L 328.347481 478.181637 
z
" clip-path="url(#p8e96157664)" style="fill: #2e86ab; opacity: 0.15; stroke: #2e86ab; stroke-linejoin: miter"/>
   </g>
   <g id="patch_4">
    <path d="M 300.252102 312.685812 
L 276.738658 306.025614 
L 227.174591 278.24767 
L 261.709408 322.032942 
L 340.321158 515.032825 
z
" clip-path="url(#p8e96157664)" style="fill: #a23b72; opacity: 0.15; stroke: #a23b72; stroke-linejoin: miter"/>
   </g>
   <g id="patch_5">
    <path d="M 338.298766 312.685812 
L 295.054143 249.656346 
L 235.992572 284.654308 
L 267.292186 317.976816 
L 328.217294 477.780963 
z
" clip-path="url(#p8e96157664)" style="fill: #f18f01; opacity: 0.15; stroke: #f18f01; stroke-linejoin: miter"/>
   </g>
   <g id="matplotlib.axis_1">
    <g id="xtick_1">
     <g id="line2d_1">
      <path d="M 274.574628 312.685812 
L 496.334628 312.685812 
" clip-path="url(#p8e96157664)" style="fill: none; stroke: #b0b0b0; stroke-width: 0.8; stroke-linecap: square"/>
     </g>
     <g id="text_1">
      <!-- Collision Rate (CR) -->
      <g transform="translate(450.887362 315.721125) scale(0.11 -0.11)">
       <defs>
        <path id="DejaVuSerif-Bold-43" d="M 4769 1331 
Q 4584 609 4106 259 
Q 3628 -91 2822 -91 
Q 1641 -91 955 561 
Q 269 1213 269 2328 
Q 269 3447 955 4098 
Q 1641 4750 2822 4750 
Q 3238 4750 3688 4650 
Q 4138 4550 4641 4347 
L 4641 3200 
L 4244 3200 
Q 4122 3788 3800 4080 
Q 3478 4372 2950 4372 
Q 2269 4372 1937 3870 
Q 1606 3369 1606 2328 
Q 1606 1288 1937 788 
Q 2269 288 2956 288 
Q 3422 288 3717 547 
Q 4013 806 4147 1331 
L 4769 1331 
z
" transform="scale(0.015625)"/>
        <path id="DejaVuSerif-Bold-6f" d="M 2138 263 
Q 2488 263 2630 563 
Q 2772 863 2772 1663 
Q 2772 2463 2631 2761 
Q 2491 3059 2138 3059 
Q 1784 3059 1640 2757 
Q 1497 2456 1497 1663 
Q 1497 869 1640 566 
Q 1784 263 2138 263 
z
M 2138 -91 
Q 1259 -91 761 376 
Q 263 844 263 1663 
Q 263 2484 761 2948 
Q 1259 3413 2138 3413 
Q 3019 3413 3516 2948 
Q 4013 2484 4013 1663 
Q 4013 844 3514 376 
Q 3016 -91 2138 -91 
z
" transform="scale(0.015625)"/>
        <path id="DejaVuSerif-Bold-6c" d="M 1797 378 
L 2272 378 
L 2272 0 
L 219 0 
L 219 378 
L 691 378 
L 691 4488 
L 219 4488 
L 219 4863 
L 1797 4863 
L 1797 378 
z
" transform="scale(0.015625)"/>
        <path id="DejaVuSerif-Bold-69" d="M 588 4263 
Q 588 4516 763 4689 
Q 938 4863 1191 4863 
Q 1438 4863 1611 4689 
Q 1784 4516 1784 4263 
Q 1784 4016 1611 3842 
Q 1438 3669 1191 3669 
Q 938 3669 763 3841 
Q 588 4013 588 4263 
z
M 1797 378 
L 2272 378 
L 2272 0 
L 219 0 
L 219 378 
L 691 378 
L 691 2944 
L 219 2944 
L 219 3322 
L 1797 3322 
L 1797 378 
z
" transform="scale(0.015625)"/>
        <path id="DejaVuSerif-Bold-73" d="M 300 97 
L 300 1025 
L 653 1025 
Q 697 653 931 458 
Q 1166 263 1569 263 
Q 1906 263 2086 380 
Q 2266 497 2266 716 
Q 2266 916 2152 1025 
Q 2038 1134 1709 1216 
L 1253 1331 
Q 738 1459 506 1698 
Q 275 1938 275 2344 
Q 275 2884 650 3148 
Q 1025 3413 1806 3413 
Q 2100 3413 2433 3364 
Q 2766 3316 3169 3213 
L 3169 2375 
L 2816 2375 
Q 2788 2716 2573 2887 
Q 2359 3059 1959 3059 
Q 1622 3059 1448 2951 
Q 1275 2844 1275 2638 
Q 1275 2469 1375 2372 
Q 1475 2275 1734 2209 
L 2188 2094 
Q 2841 1928 3091 1684 
Q 3341 1441 3341 1006 
Q 3341 444 2939 176 
Q 2538 -91 1691 -91 
Q 1381 -91 1034 -44 
Q 688 3 300 97 
z
" transform="scale(0.015625)"/>
        <path id="DejaVuSerif-Bold-6e" d="M 219 0 
L 219 378 
L 691 378 
L 691 2944 
L 219 2944 
L 219 3322 
L 1797 3322 
L 1797 2853 
Q 1997 3150 2253 3281 
Q 2509 3413 2900 3413 
Q 3459 3413 3745 3083 
Q 4031 2753 4031 2113 
L 4031 378 
L 4506 378 
L 4506 0 
L 2522 0 
L 2522 378 
L 2925 378 
L 2925 2144 
Q 2925 2566 2817 2730 
Q 2709 2894 2444 2894 
Q 2109 2894 1953 2648 
Q 1797 2403 1797 1869 
L 1797 378 
L 2203 378 
L 2203 0 
L 219 0 
z
" transform="scale(0.015625)"/>
        <path id="DejaVuSerif-Bold-20" transform="scale(0.015625)"/>
        <path id="DejaVuSerif-Bold-52" d="M 3397 2278 
Q 3675 2238 3865 2094 
Q 4056 1950 4197 1678 
L 4878 378 
L 5356 378 
L 5356 0 
L 3822 0 
L 3078 1409 
Q 2863 1847 2711 1967 
Q 2559 2088 2291 2088 
L 2100 2088 
L 2100 378 
L 2700 378 
L 2700 0 
L 300 0 
L 300 378 
L 897 378 
L 897 4288 
L 300 4288 
L 300 4666 
L 2963 4666 
Q 3775 4666 4217 4339 
Q 4659 4013 4659 3413 
Q 4659 2925 4345 2642 
Q 4031 2359 3397 2278 
z
M 2100 2463 
L 2509 2463 
Q 2947 2463 3183 2700 
Q 3419 2938 3419 3378 
Q 3419 3819 3183 4053 
Q 2947 4288 2509 4288 
L 2100 4288 
L 2100 2463 
z
" transform="scale(0.015625)"/>
        <path id="DejaVuSerif-Bold-61" d="M 3525 2041 
L 3525 378 
L 4000 378 
L 4000 0 
L 2419 0 
L 2419 422 
Q 2200 159 1931 34 
Q 1663 -91 1319 -91 
Q 809 -91 536 182 
Q 263 456 263 966 
Q 263 1525 655 1803 
Q 1047 2081 1838 2081 
L 2419 2081 
L 2419 2278 
Q 2419 2681 2228 2873 
Q 2038 3066 1638 3066 
Q 1306 3066 1126 2930 
Q 947 2794 872 2484 
L 519 2484 
L 519 3200 
Q 816 3306 1134 3359 
Q 1453 3413 1806 3413 
Q 2697 3413 3111 3081 
Q 3525 2750 3525 2041 
z
M 2419 1044 
L 2419 1709 
L 2003 1709 
Q 1694 1709 1528 1540 
Q 1363 1372 1363 1056 
Q 1363 741 1483 584 
Q 1603 428 1850 428 
Q 2106 428 2262 597 
Q 2419 766 2419 1044 
z
" transform="scale(0.015625)"/>
        <path id="DejaVuSerif-Bold-74" d="M 634 2944 
L 153 2944 
L 153 3322 
L 634 3322 
L 634 4353 
L 1741 4353 
L 1741 3322 
L 2663 3322 
L 2663 2944 
L 1741 2944 
L 1741 909 
Q 1741 475 1809 369 
Q 1878 263 2059 263 
Q 2259 263 2356 397 
Q 2453 531 2459 813 
L 2925 813 
Q 2897 313 2651 111 
Q 2406 -91 1806 -91 
Q 1122 -91 878 123 
Q 634 338 634 909 
L 634 2944 
z
" transform="scale(0.015625)"/>
        <path id="DejaVuSerif-Bold-65" d="M 2566 1875 
Q 2566 2531 2444 2795 
Q 2322 3059 2028 3059 
Q 1744 3059 1620 2800 
Q 1497 2541 1497 1931 
L 1497 1875 
L 2566 1875 
z
M 3781 1503 
L 1497 1503 
L 1497 1478 
Q 1497 834 1690 548 
Q 1884 263 2316 263 
Q 2675 263 2897 453 
Q 3119 644 3181 1006 
L 3700 1006 
Q 3566 441 3166 175 
Q 2766 -91 2047 -91 
Q 1184 -91 723 364 
Q 263 819 263 1663 
Q 263 2488 734 2950 
Q 1206 3413 2047 3413 
Q 2872 3413 3312 2927 
Q 3753 2441 3781 1503 
z
" transform="scale(0.015625)"/>
        <path id="DejaVuSerif-Bold-28" d="M 2694 -997 
Q 1641 -606 1122 122 
Q 603 850 603 1931 
Q 603 3013 1115 3731 
Q 1628 4450 2694 4863 
L 2694 4488 
Q 2200 4188 1983 3598 
Q 1766 3009 1766 1931 
Q 1766 856 1983 267 
Q 2200 -322 2694 -622 
L 2694 -997 
z
" transform="scale(0.015625)"/>
        <path id="DejaVuSerif-Bold-29" d="M 325 -997 
L 325 -622 
Q 819 -322 1036 267 
Q 1253 856 1253 1931 
Q 1253 3009 1036 3598 
Q 819 4188 325 4488 
L 325 4863 
Q 1391 4450 1905 3731 
Q 2419 3013 2419 1931 
Q 2419 850 1898 122 
Q 1378 -606 325 -997 
z
" transform="scale(0.015625)"/>
       </defs>
       <use xlink:href="#DejaVuSerif-Bold-43"/>
       <use xlink:href="#DejaVuSerif-Bold-6f" transform="translate(79.589844 0)"/>
       <use xlink:href="#DejaVuSerif-Bold-6c" transform="translate(146.289062 0)"/>
       <use xlink:href="#DejaVuSerif-Bold-6c" transform="translate(184.277344 0)"/>
       <use xlink:href="#DejaVuSerif-Bold-69" transform="translate(222.265625 0)"/>
       <use xlink:href="#DejaVuSerif-Bold-73" transform="translate(260.253906 0)"/>
       <use xlink:href="#DejaVuSerif-Bold-69" transform="translate(316.552734 0)"/>
       <use xlink:href="#DejaVuSerif-Bold-6f" transform="translate(354.541016 0)"/>
       <use xlink:href="#DejaVuSerif-Bold-6e" transform="translate(421.240234 0)"/>
       <use xlink:href="#DejaVuSerif-Bold-20" transform="translate(493.945312 0)"/>
       <use xlink:href="#DejaVuSerif-Bold-52" transform="translate(528.759766 0)"/>
       <use xlink:href="#DejaVuSerif-Bold-61" transform="translate(614.115234 0)"/>
       <use xlink:href="#DejaVuSerif-Bold-74" transform="translate(678.910156 0)"/>
       <use xlink:href="#DejaVuSerif-Bold-65" transform="translate(725.101562 0)"/>
       <use xlink:href="#DejaVuSerif-Bold-20" transform="translate(788.724609 0)"/>
       <use xlink:href="#DejaVuSerif-Bold-28" transform="translate(823.539062 0)"/>
       <use xlink:href="#DejaVuSerif-Bold-43" transform="translate(870.853516 0)"/>
       <use xlink:href="#DejaVuSerif-Bold-52" transform="translate(950.443359 0)"/>
       <use xlink:href="#DejaVuSerif-Bold-29" transform="translate(1033.548828 0)"/>
      </g>
     </g>
    </g>
    <g id="xtick_2">
     <g id="line2d_2">
      <path d="M 274.574628 312.685812 
L 343.102237 101.779519 
" clip-path="url(#p8e96157664)" style="fill: none; stroke: #b0b0b0; stroke-width: 0.8; stroke-linecap: square"/>
     </g>
     <g id="text_2">
      <!-- Violation Rate (VR) -->
      <g transform="translate(287.378787 91.500041) scale(0.11 -0.11)">
       <defs>
        <path id="DejaVuSerif-Bold-56" d="M 5056 4666 
L 5056 4288 
L 4666 4288 
L 2906 0 
L 2163 0 
L 403 4288 
L -38 4288 
L -38 4666 
L 2150 4666 
L 2150 4288 
L 1697 4288 
L 2956 1197 
L 4225 4288 
L 3669 4288 
L 3669 4666 
L 5056 4666 
z
" transform="scale(0.015625)"/>
       </defs>
       <use xlink:href="#DejaVuSerif-Bold-56"/>
       <use xlink:href="#DejaVuSerif-Bold-69" transform="translate(75.837891 0)"/>
       <use xlink:href="#DejaVuSerif-Bold-6f" transform="translate(113.826172 0)"/>
       <use xlink:href="#DejaVuSerif-Bold-6c" transform="translate(180.525391 0)"/>
       <use xlink:href="#DejaVuSerif-Bold-61" transform="translate(218.513672 0)"/>
       <use xlink:href="#DejaVuSerif-Bold-74" transform="translate(283.308594 0)"/>
       <use xlink:href="#DejaVuSerif-Bold-69" transform="translate(329.5 0)"/>
       <use xlink:href="#DejaVuSerif-Bold-6f" transform="translate(367.488281 0)"/>
       <use xlink:href="#DejaVuSerif-Bold-6e" transform="translate(434.1875 0)"/>
       <use xlink:href="#DejaVuSerif-Bold-20" transform="translate(506.892578 0)"/>
       <use xlink:href="#DejaVuSerif-Bold-52" transform="translate(541.707031 0)"/>
       <use xlink:href="#DejaVuSerif-Bold-61" transform="translate(627.0625 0)"/>
       <use xlink:href="#DejaVuSerif-Bold-74" transform="translate(691.857422 0)"/>
       <use xlink:href="#DejaVuSerif-Bold-65" transform="translate(738.048828 0)"/>
       <use xlink:href="#DejaVuSerif-Bold-20" transform="translate(801.671875 0)"/>
       <use xlink:href="#DejaVuSerif-Bold-28" transform="translate(836.486328 0)"/>
       <use xlink:href="#DejaVuSerif-Bold-56" transform="translate(883.800781 0)"/>
       <use xlink:href="#DejaVuSerif-Bold-52" transform="translate(961.388672 0)"/>
       <use xlink:href="#DejaVuSerif-Bold-29" transform="translate(1044.494141 0)"/>
      </g>
     </g>
    </g>
    <g id="xtick_3">
     <g id="line2d_3">
      <path d="M 274.574628 312.685812 
L 95.167019 182.338555 
" clip-path="url(#p8e96157664)" style="fill: none; stroke: #b0b0b0; stroke-width: 0.8; stroke-linecap: square"/>
     </g>
     <g id="text_3">
      <!-- Completion Rate (Comp) -->
      <g transform="translate(7.2 177.144874) scale(0.11 -0.11)">
       <defs>
        <path id="DejaVuSerif-Bold-6d" d="M 3884 2778 
Q 4116 3109 4384 3261 
Q 4653 3413 5013 3413 
Q 5584 3413 5867 3089 
Q 6150 2766 6150 2113 
L 6150 378 
L 6625 378 
L 6625 0 
L 4647 0 
L 4647 378 
L 5044 378 
L 5044 1947 
Q 5044 2569 4948 2731 
Q 4853 2894 4594 2894 
Q 4300 2894 4137 2667 
Q 3975 2441 3975 2022 
L 3975 378 
L 4372 378 
L 4372 0 
L 2472 0 
L 2472 378 
L 2869 378 
L 2869 1947 
Q 2869 2569 2772 2731 
Q 2675 2894 2419 2894 
Q 2122 2894 1959 2667 
Q 1797 2441 1797 2022 
L 1797 378 
L 2194 378 
L 2194 0 
L 219 0 
L 219 378 
L 691 378 
L 691 2944 
L 219 2944 
L 219 3322 
L 1797 3322 
L 1797 2853 
Q 1991 3144 2241 3278 
Q 2491 3413 2834 3413 
Q 3241 3413 3494 3258 
Q 3747 3103 3884 2778 
z
" transform="scale(0.015625)"/>
        <path id="DejaVuSerif-Bold-70" d="M 1728 1825 
L 1728 1497 
Q 1728 916 1876 656 
Q 2025 397 2356 397 
Q 2697 397 2836 672 
Q 2975 947 2975 1663 
Q 2975 2378 2836 2651 
Q 2697 2925 2356 2925 
Q 2025 2925 1876 2665 
Q 1728 2406 1728 1825 
z
M 622 2944 
L 147 2944 
L 147 3322 
L 1728 3322 
L 1728 2900 
Q 1869 3159 2106 3286 
Q 2344 3413 2694 3413 
Q 3403 3413 3811 2945 
Q 4219 2478 4219 1663 
Q 4219 847 3811 378 
Q 3403 -91 2694 -91 
Q 2344 -91 2106 36 
Q 1869 163 1728 422 
L 1728 -953 
L 2241 -953 
L 2241 -1331 
L 147 -1331 
L 147 -953 
L 622 -953 
L 622 2944 
z
" transform="scale(0.015625)"/>
       </defs>
       <use xlink:href="#DejaVuSerif-Bold-43"/>
       <use xlink:href="#DejaVuSerif-Bold-6f" transform="translate(79.589844 0)"/>
       <use xlink:href="#DejaVuSerif-Bold-6d" transform="translate(146.289062 0)"/>
       <use xlink:href="#DejaVuSerif-Bold-70" transform="translate(252.099609 0)"/>
       <use xlink:href="#DejaVuSerif-Bold-6c" transform="translate(322.021484 0)"/>
       <use xlink:href="#DejaVuSerif-Bold-65" transform="translate(360.009766 0)"/>
       <use xlink:href="#DejaVuSerif-Bold-74" transform="translate(423.632812 0)"/>
       <use xlink:href="#DejaVuSerif-Bold-69" transform="translate(469.824219 0)"/>
       <use xlink:href="#DejaVuSerif-Bold-6f" transform="translate(507.8125 0)"/>
       <use xlink:href="#DejaVuSerif-Bold-6e" transform="translate(574.511719 0)"/>
       <use xlink:href="#DejaVuSerif-Bold-20" transform="translate(647.216797 0)"/>
       <use xlink:href="#DejaVuSerif-Bold-52" transform="translate(682.03125 0)"/>
       <use xlink:href="#DejaVuSerif-Bold-61" transform="translate(767.386719 0)"/>
       <use xlink:href="#DejaVuSerif-Bold-74" transform="translate(832.181641 0)"/>
       <use xlink:href="#DejaVuSerif-Bold-65" transform="translate(878.373047 0)"/>
       <use xlink:href="#DejaVuSerif-Bold-20" transform="translate(941.996094 0)"/>
       <use xlink:href="#DejaVuSerif-Bold-28" transform="translate(976.810547 0)"/>
       <use xlink:href="#DejaVuSerif-Bold-43" transform="translate(1024.125 0)"/>
       <use xlink:href="#DejaVuSerif-Bold-6f" transform="translate(1103.714844 0)"/>
       <use xlink:href="#DejaVuSerif-Bold-6d" transform="translate(1170.414062 0)"/>
       <use xlink:href="#DejaVuSerif-Bold-70" transform="translate(1276.224609 0)"/>
       <use xlink:href="#DejaVuSerif-Bold-29" transform="translate(1346.146484 0)"/>
      </g>
     </g>
    </g>
    <g id="xtick_4">
     <g id="line2d_4">
      <path d="M 274.574628 312.685812 
L 95.167019 443.03307 
" clip-path="url(#p8e96157664)" style="fill: none; stroke: #b0b0b0; stroke-width: 0.8; stroke-linecap: square"/>
     </g>
     <g id="text_4">
      <!-- Route Following (RF) -->
      <g transform="translate(18.267031 454.219173) scale(0.11 -0.11)">
       <defs>
        <path id="DejaVuSerif-Bold-75" d="M 3963 3322 
L 3963 378 
L 4434 378 
L 4434 0 
L 2853 0 
L 2853 469 
Q 2656 172 2400 40 
Q 2144 -91 1753 -91 
Q 1194 -91 908 239 
Q 622 569 622 1209 
L 622 2944 
L 147 2944 
L 147 3322 
L 1728 3322 
L 1728 1381 
Q 1728 763 1831 595 
Q 1934 428 2209 428 
Q 2544 428 2698 675 
Q 2853 922 2853 1459 
L 2853 2944 
L 2450 2944 
L 2450 3322 
L 3963 3322 
z
" transform="scale(0.015625)"/>
        <path id="DejaVuSerif-Bold-46" d="M 300 0 
L 300 378 
L 897 378 
L 897 4288 
L 300 4288 
L 300 4666 
L 4459 4666 
L 4459 3566 
L 4031 3566 
L 4031 4238 
L 2106 4238 
L 2106 2741 
L 3291 2741 
L 3291 3334 
L 3719 3334 
L 3719 1722 
L 3291 1722 
L 3291 2316 
L 2106 2316 
L 2106 378 
L 2841 378 
L 2841 0 
L 300 0 
z
" transform="scale(0.015625)"/>
        <path id="DejaVuSerif-Bold-77" d="M 3450 3322 
L 4206 1106 
L 4831 2944 
L 4397 2944 
L 4397 3322 
L 5638 3322 
L 5638 2944 
L 5247 2944 
L 4244 0 
L 3481 0 
L 2778 2081 
L 2069 0 
L 1313 0 
L 306 2944 
L -56 2944 
L -56 3322 
L 1825 3322 
L 1825 2944 
L 1434 2944 
L 2047 1147 
L 2791 3322 
L 3450 3322 
z
" transform="scale(0.015625)"/>
        <path id="DejaVuSerif-Bold-67" d="M 3853 2944 
L 3853 44 
Q 3853 -656 3354 -1039 
Q 2856 -1422 1947 -1422 
Q 1616 -1422 1275 -1370 
Q 934 -1319 575 -1216 
L 575 -422 
L 928 -422 
Q 975 -750 1192 -909 
Q 1409 -1069 1813 -1069 
Q 2325 -1069 2536 -823 
Q 2747 -578 2747 44 
L 2747 422 
Q 2606 163 2367 36 
Q 2128 -91 1778 -91 
Q 1072 -91 667 378 
Q 263 847 263 1663 
Q 263 2481 667 2947 
Q 1072 3413 1778 3413 
Q 2128 3413 2367 3286 
Q 2606 3159 2747 2900 
L 2747 3322 
L 4325 3322 
L 4325 2944 
L 3853 2944 
z
M 2747 1825 
Q 2747 2406 2597 2665 
Q 2447 2925 2119 2925 
Q 1775 2925 1636 2651 
Q 1497 2378 1497 1663 
Q 1497 947 1637 672 
Q 1778 397 2119 397 
Q 2447 397 2597 656 
Q 2747 916 2747 1497 
L 2747 1825 
z
" transform="scale(0.015625)"/>
       </defs>
       <use xlink:href="#DejaVuSerif-Bold-52"/>
       <use xlink:href="#DejaVuSerif-Bold-6f" transform="translate(83.105469 0)"/>
       <use xlink:href="#DejaVuSerif-Bold-75" transform="translate(149.804688 0)"/>
       <use xlink:href="#DejaVuSerif-Bold-74" transform="translate(222.509766 0)"/>
       <use xlink:href="#DejaVuSerif-Bold-65" transform="translate(268.701172 0)"/>
       <use xlink:href="#DejaVuSerif-Bold-20" transform="translate(332.324219 0)"/>
       <use xlink:href="#DejaVuSerif-Bold-46" transform="translate(367.138672 0)"/>
       <use xlink:href="#DejaVuSerif-Bold-6f" transform="translate(432.634766 0)"/>
       <use xlink:href="#DejaVuSerif-Bold-6c" transform="translate(499.333984 0)"/>
       <use xlink:href="#DejaVuSerif-Bold-6c" transform="translate(537.322266 0)"/>
       <use xlink:href="#DejaVuSerif-Bold-6f" transform="translate(575.310547 0)"/>
       <use xlink:href="#DejaVuSerif-Bold-77" transform="translate(642.009766 0)"/>
       <use xlink:href="#DejaVuSerif-Bold-69" transform="translate(728.09375 0)"/>
       <use xlink:href="#DejaVuSerif-Bold-6e" transform="translate(766.082031 0)"/>
       <use xlink:href="#DejaVuSerif-Bold-67" transform="translate(838.787109 0)"/>
       <use xlink:href="#DejaVuSerif-Bold-20" transform="translate(908.708984 0)"/>
       <use xlink:href="#DejaVuSerif-Bold-28" transform="translate(943.523438 0)"/>
       <use xlink:href="#DejaVuSerif-Bold-52" transform="translate(990.837891 0)"/>
       <use xlink:href="#DejaVuSerif-Bold-46" transform="translate(1073.943359 0)"/>
       <use xlink:href="#DejaVuSerif-Bold-29" transform="translate(1144.939453 0)"/>
      </g>
     </g>
    </g>
    <g id="xtick_5">
     <g id="line2d_5">
      <path d="M 274.574628 312.685812 
L 343.102237 523.592106 
" clip-path="url(#p8e96157664)" style="fill: none; stroke: #b0b0b0; stroke-width: 0.8; stroke-linecap: square"/>
     </g>
     <g id="text_5">
      <!-- Time Spent (TS) -->
      <g transform="translate(296.97199 539.942209) scale(0.11 -0.11)">
       <defs>
        <path id="DejaVuSerif-Bold-54" d="M 1159 0 
L 1159 378 
L 1778 378 
L 1778 4238 
L 500 4238 
L 500 3500 
L 72 3500 
L 72 4666 
L 4697 4666 
L 4697 3500 
L 4275 3500 
L 4275 4238 
L 2988 4238 
L 2988 378 
L 3609 378 
L 3609 0 
L 1159 0 
z
" transform="scale(0.015625)"/>
        <path id="DejaVuSerif-Bold-53" d="M 494 225 
L 494 1331 
L 891 1331 
Q 981 806 1318 547 
Q 1656 288 2253 288 
Q 2738 288 2991 472 
Q 3244 656 3244 1013 
Q 3244 1294 3072 1450 
Q 2900 1606 2363 1741 
L 1663 1913 
Q 978 2088 700 2398 
Q 422 2709 422 3284 
Q 422 3978 883 4364 
Q 1344 4750 2175 4750 
Q 2584 4750 3026 4681 
Q 3469 4613 3944 4475 
L 3944 3444 
L 3547 3444 
Q 3456 3925 3150 4148 
Q 2844 4372 2278 4372 
Q 1816 4372 1580 4211 
Q 1344 4050 1344 3731 
Q 1344 3441 1506 3289 
Q 1669 3138 2303 2975 
L 3003 2803 
Q 3653 2641 3945 2297 
Q 4238 1953 4238 1350 
Q 4238 644 3750 276 
Q 3263 -91 2316 -91 
Q 1859 -91 1409 -12 
Q 959 66 494 225 
z
" transform="scale(0.015625)"/>
       </defs>
       <use xlink:href="#DejaVuSerif-Bold-54"/>
       <use xlink:href="#DejaVuSerif-Bold-69" transform="translate(74.414062 0)"/>
       <use xlink:href="#DejaVuSerif-Bold-6d" transform="translate(112.402344 0)"/>
       <use xlink:href="#DejaVuSerif-Bold-65" transform="translate(218.212891 0)"/>
       <use xlink:href="#DejaVuSerif-Bold-20" transform="translate(281.835938 0)"/>
       <use xlink:href="#DejaVuSerif-Bold-53" transform="translate(316.650391 0)"/>
       <use xlink:href="#DejaVuSerif-Bold-70" transform="translate(388.867188 0)"/>
       <use xlink:href="#DejaVuSerif-Bold-65" transform="translate(458.789062 0)"/>
       <use xlink:href="#DejaVuSerif-Bold-6e" transform="translate(522.412109 0)"/>
       <use xlink:href="#DejaVuSerif-Bold-74" transform="translate(595.117188 0)"/>
       <use xlink:href="#DejaVuSerif-Bold-20" transform="translate(641.308594 0)"/>
       <use xlink:href="#DejaVuSerif-Bold-28" transform="translate(676.123047 0)"/>
       <use xlink:href="#DejaVuSerif-Bold-54" transform="translate(723.4375 0)"/>
       <use xlink:href="#DejaVuSerif-Bold-53" transform="translate(797.851562 0)"/>
       <use xlink:href="#DejaVuSerif-Bold-29" transform="translate(870.068359 0)"/>
      </g>
     </g>
    </g>
   </g>
   <g id="matplotlib.axis_2">
    <g id="ytick_1">
     <g id="line2d_6">
      <path d="M 318.926628 312.685812 
C 318.926628 306.861561 317.779377 301.093943 315.550533 295.713037 
C 313.321688 290.33213 310.054595 285.44258 305.936228 281.324213 
C 301.81786 277.205845 296.92831 273.938752 291.547403 271.709907 
C 286.166497 269.481063 280.398879 268.333812 274.574628 268.333812 
C 268.750377 268.333812 262.982759 269.481063 257.601852 271.709907 
C 252.220946 273.938752 247.331395 277.205845 243.213028 281.324213 
C 239.09466 285.44258 235.827567 290.33213 233.598723 295.713037 
C 231.369878 301.093943 230.222628 306.861561 230.222628 312.685812 
C 230.222628 318.510064 231.369878 324.277682 233.598723 329.658588 
C 235.827567 335.039495 239.09466 339.929045 243.213028 344.047412 
C 247.331395 348.16578 252.220946 351.432873 257.601852 353.661718 
C 262.982759 355.890562 268.750377 357.037812 274.574628 357.037812 
C 280.398879 357.037812 286.166497 355.890562 291.547403 353.661718 
C 296.92831 351.432873 301.81786 348.16578 305.936228 344.047412 
C 310.054595 339.929045 313.321688 335.039495 315.550533 329.658588 
C 317.779377 324.277682 318.926628 318.510064 318.926628 312.685812 
" clip-path="url(#p8e96157664)" style="fill: none; stroke: #b0b0b0; stroke-width: 0.8; stroke-linecap: square"/>
     </g>
     <g id="text_6">
      <!-- 0.2 -->
      <g transform="translate(315.550533 293.841318) scale(0.09 -0.09)">
       <defs>
        <path id="DejaVuSerif-30" d="M 2034 219 
Q 2513 219 2750 744 
Q 2988 1269 2988 2328 
Q 2988 3391 2750 3916 
Q 2513 4441 2034 4441 
Q 1556 4441 1318 3916 
Q 1081 3391 1081 2328 
Q 1081 1269 1318 744 
Q 1556 219 2034 219 
z
M 2034 -91 
Q 1275 -91 848 546 
Q 422 1184 422 2328 
Q 422 3475 848 4112 
Q 1275 4750 2034 4750 
Q 2797 4750 3222 4112 
Q 3647 3475 3647 2328 
Q 3647 1184 3222 546 
Q 2797 -91 2034 -91 
z
" transform="scale(0.015625)"/>
        <path id="DejaVuSerif-2e" d="M 603 325 
Q 603 500 722 622 
Q 841 744 1019 744 
Q 1191 744 1312 622 
Q 1434 500 1434 325 
Q 1434 153 1312 31 
Q 1191 -91 1019 -91 
Q 841 -91 722 29 
Q 603 150 603 325 
z
" transform="scale(0.015625)"/>
        <path id="DejaVuSerif-32" d="M 819 3553 
L 469 3553 
L 469 4384 
Q 803 4563 1142 4656 
Q 1481 4750 1806 4750 
Q 2534 4750 2956 4397 
Q 3378 4044 3378 3438 
Q 3378 2753 2422 1800 
Q 2347 1728 2309 1691 
L 1131 513 
L 3078 513 
L 3078 1088 
L 3444 1088 
L 3444 0 
L 434 0 
L 434 341 
L 1850 1753 
Q 2319 2222 2519 2614 
Q 2719 3006 2719 3438 
Q 2719 3909 2473 4175 
Q 2228 4441 1797 4441 
Q 1350 4441 1106 4219 
Q 863 3997 819 3553 
z
" transform="scale(0.015625)"/>
       </defs>
       <use xlink:href="#DejaVuSerif-30"/>
       <use xlink:href="#DejaVuSerif-2e" transform="translate(63.623047 0)"/>
       <use xlink:href="#DejaVuSerif-32" transform="translate(95.410156 0)"/>
      </g>
     </g>
    </g>
    <g id="ytick_2">
     <g id="line2d_7">
      <path d="M 363.278628 312.685812 
C 363.278628 301.03731 360.984127 289.502074 356.526438 278.740261 
C 352.068749 267.978448 345.534563 258.199348 337.297828 249.962613 
C 329.061093 241.725877 319.281992 235.191691 308.520179 230.734002 
C 297.758366 226.276314 286.22313 223.981812 274.574628 223.981812 
C 262.926125 223.981812 251.39089 226.276314 240.629077 230.734002 
C 229.867264 235.191691 220.088163 241.725877 211.851428 249.962613 
C 203.614693 258.199348 197.080507 267.978448 192.622818 278.740261 
C 188.165129 289.502074 185.870628 301.03731 185.870628 312.685812 
C 185.870628 324.334315 188.165129 335.869551 192.622818 346.631364 
C 197.080507 357.393177 203.614693 367.172277 211.851428 375.409012 
C 220.088163 383.645748 229.867264 390.179934 240.629077 394.637623 
C 251.39089 399.095311 262.926125 401.389812 274.574628 401.389812 
C 286.22313 401.389812 297.758366 399.095311 308.520179 394.637623 
C 319.281992 390.179934 329.061093 383.645748 337.297828 375.409012 
C 345.534563 367.172277 352.068749 357.393177 356.526438 346.631364 
C 360.984127 335.869551 363.278628 324.334315 363.278628 312.685812 
" clip-path="url(#p8e96157664)" style="fill: none; stroke: #b0b0b0; stroke-width: 0.8; stroke-linecap: square"/>
     </g>
     <g id="text_7">
      <!-- 0.4 -->
      <g transform="translate(356.526438 276.868543) scale(0.09 -0.09)">
       <defs>
        <path id="DejaVuSerif-34" d="M 2234 1581 
L 2234 4063 
L 641 1581 
L 2234 1581 
z
M 3609 0 
L 1484 0 
L 1484 331 
L 2234 331 
L 2234 1247 
L 197 1247 
L 197 1588 
L 2241 4750 
L 2859 4750 
L 2859 1581 
L 3750 1581 
L 3750 1247 
L 2859 1247 
L 2859 331 
L 3609 331 
L 3609 0 
z
" transform="scale(0.015625)"/>
       </defs>
       <use xlink:href="#DejaVuSerif-30"/>
       <use xlink:href="#DejaVuSerif-2e" transform="translate(63.623047 0)"/>
       <use xlink:href="#DejaVuSerif-34" transform="translate(95.410156 0)"/>
      </g>
     </g>
    </g>
    <g id="ytick_3">
     <g id="line2d_8">
      <path d="M 407.630628 312.685812 
C 407.630628 295.213059 404.188876 277.910205 397.502343 261.767486 
C 390.81581 245.624766 381.01453 230.956115 368.659428 218.601013 
C 356.304325 206.24591 341.635674 196.444631 325.492955 189.758097 
C 309.350235 183.071564 292.047382 179.629812 274.574628 179.629812 
C 257.101874 179.629812 239.799021 183.071564 223.656301 189.758097 
C 207.513581 196.444631 192.844931 206.24591 180.489828 218.601013 
C 168.134725 230.956115 158.333446 245.624766 151.646913 261.767486 
C 144.960379 277.910205 141.518628 295.213059 141.518628 312.685812 
C 141.518628 330.158566 144.960379 347.46142 151.646913 363.604139 
C 158.333446 379.746859 168.134725 394.41551 180.489828 406.770612 
C 192.844931 419.125715 207.513581 428.926994 223.656301 435.613528 
C 239.799021 442.300061 257.101874 445.741812 274.574628 445.741812 
C 292.047382 445.741812 309.350235 442.300061 325.492955 435.613528 
C 341.635674 428.926994 356.304325 419.125715 368.659428 406.770612 
C 381.01453 394.41551 390.81581 379.746859 397.502343 363.604139 
C 404.188876 347.46142 407.630628 330.158566 407.630628 312.685812 
" clip-path="url(#p8e96157664)" style="fill: none; stroke: #b0b0b0; stroke-width: 0.8; stroke-linecap: square"/>
     </g>
     <g id="text_8">
      <!-- 0.6 -->
      <g transform="translate(397.502343 259.895767) scale(0.09 -0.09)">
       <defs>
        <path id="DejaVuSerif-36" d="M 2094 219 
Q 2534 219 2771 542 
Q 3009 866 3009 1472 
Q 3009 2078 2771 2401 
Q 2534 2725 2094 2725 
Q 1647 2725 1412 2412 
Q 1178 2100 1178 1509 
Q 1178 888 1415 553 
Q 1653 219 2094 219 
z
M 1075 2569 
Q 1288 2803 1556 2918 
Q 1825 3034 2163 3034 
Q 2859 3034 3264 2615 
Q 3669 2197 3669 1472 
Q 3669 763 3233 336 
Q 2797 -91 2069 -91 
Q 1278 -91 853 498 
Q 428 1088 428 2181 
Q 428 3406 931 4078 
Q 1434 4750 2350 4750 
Q 2597 4750 2869 4703 
Q 3141 4656 3425 4563 
L 3425 3794 
L 3072 3794 
Q 3034 4109 2831 4275 
Q 2628 4441 2284 4441 
Q 1678 4441 1381 3981 
Q 1084 3522 1075 2569 
z
" transform="scale(0.015625)"/>
       </defs>
       <use xlink:href="#DejaVuSerif-30"/>
       <use xlink:href="#DejaVuSerif-2e" transform="translate(63.623047 0)"/>
       <use xlink:href="#DejaVuSerif-36" transform="translate(95.410156 0)"/>
      </g>
     </g>
    </g>
    <g id="ytick_4">
     <g id="line2d_9">
      <path d="M 451.982628 312.685812 
C 451.982628 289.388807 447.393626 266.318336 438.478248 244.79471 
C 429.56287 223.271084 416.494498 203.712883 400.021028 187.239413 
C 383.547557 170.765942 363.989356 157.69757 342.46573 148.782192 
C 320.942104 139.866815 297.871633 135.277812 274.574628 135.277812 
C 251.277623 135.277812 228.207152 139.866815 206.683525 148.782192 
C 185.159899 157.69757 165.601698 170.765942 149.128228 187.239413 
C 132.654758 203.712883 119.586386 223.271084 110.671008 244.79471 
C 101.75563 266.318336 97.166628 289.388807 97.166628 312.685812 
C 97.166628 335.982818 101.75563 359.053289 110.671008 380.576915 
C 119.586386 402.100541 132.654758 421.658742 149.128228 438.132212 
C 165.601698 454.605683 185.159899 467.674055 206.683525 476.589433 
C 228.207152 485.50481 251.277623 490.093812 274.574628 490.093812 
C 297.871633 490.093812 320.942104 485.50481 342.46573 476.589433 
C 363.989356 467.674055 383.547557 454.605683 400.021028 438.132212 
C 416.494498 421.658742 429.56287 402.100541 438.478248 380.576915 
C 447.393626 359.053289 451.982628 335.982818 451.982628 312.685812 
" clip-path="url(#p8e96157664)" style="fill: none; stroke: #b0b0b0; stroke-width: 0.8; stroke-linecap: square"/>
     </g>
     <g id="text_9">
      <!-- 0.8 -->
      <g transform="translate(438.478248 242.922991) scale(0.09 -0.09)">
       <defs>
        <path id="DejaVuSerif-38" d="M 2981 1275 
Q 2981 1775 2732 2051 
Q 2484 2328 2034 2328 
Q 1584 2328 1336 2051 
Q 1088 1775 1088 1275 
Q 1088 772 1336 495 
Q 1584 219 2034 219 
Q 2484 219 2732 495 
Q 2981 772 2981 1275 
z
M 2853 3541 
Q 2853 3966 2637 4203 
Q 2422 4441 2034 4441 
Q 1650 4441 1433 4203 
Q 1216 3966 1216 3541 
Q 1216 3113 1433 2875 
Q 1650 2638 2034 2638 
Q 2422 2638 2637 2875 
Q 2853 3113 2853 3541 
z
M 2516 2484 
Q 3047 2413 3344 2092 
Q 3641 1772 3641 1275 
Q 3641 619 3225 264 
Q 2809 -91 2034 -91 
Q 1263 -91 845 264 
Q 428 619 428 1275 
Q 428 1772 725 2092 
Q 1022 2413 1556 2484 
Q 1084 2569 832 2842 
Q 581 3116 581 3541 
Q 581 4103 968 4426 
Q 1356 4750 2034 4750 
Q 2713 4750 3100 4426 
Q 3488 4103 3488 3541 
Q 3488 3116 3236 2842 
Q 2984 2569 2516 2484 
z
" transform="scale(0.015625)"/>
       </defs>
       <use xlink:href="#DejaVuSerif-30"/>
       <use xlink:href="#DejaVuSerif-2e" transform="translate(63.623047 0)"/>
       <use xlink:href="#DejaVuSerif-38" transform="translate(95.410156 0)"/>
      </g>
     </g>
    </g>
    <g id="ytick_5">
     <g id="line2d_10">
      <path d="M 496.334628 312.685812 
C 496.334628 283.564556 490.598375 254.726467 479.454153 227.821935 
C 468.309931 200.917402 451.974466 176.469651 431.382628 155.877813 
C 410.79079 135.285975 386.343039 118.95051 359.438506 107.806287 
C 332.533973 96.662065 303.695884 90.925812 274.574628 90.925812 
C 245.453371 90.925812 216.615283 96.662065 189.71075 107.806287 
C 162.806217 118.95051 138.358466 135.285975 117.766628 155.877813 
C 97.17479 176.469651 80.839325 200.917402 69.695103 227.821935 
C 58.55088 254.726467 52.814628 283.564556 52.814628 312.685812 
C 52.814628 341.807069 58.55088 370.645158 69.695103 397.54969 
C 80.839325 424.454223 97.17479 448.901974 117.766628 469.493812 
C 138.358466 490.08565 162.806217 506.421115 189.71075 517.565338 
C 216.615283 528.70956 245.453371 534.445812 274.574628 534.445812 
C 303.695884 534.445812 332.533973 528.70956 359.438506 517.565338 
C 386.343039 506.421115 410.79079 490.08565 431.382628 469.493812 
C 451.974466 448.901974 468.309931 424.454223 479.454153 397.54969 
C 490.598375 370.645158 496.334628 341.807069 496.334628 312.685812 
" clip-path="url(#p8e96157664)" style="fill: none; stroke: #b0b0b0; stroke-width: 0.8; stroke-linecap: square"/>
     </g>
     <g id="text_10">
      <!-- 1.0 -->
      <g transform="translate(479.454153 225.950216) scale(0.09 -0.09)">
       <defs>
        <path id="DejaVuSerif-31" d="M 909 0 
L 909 331 
L 1722 331 
L 1722 4213 
L 781 3603 
L 781 4013 
L 1919 4750 
L 2350 4750 
L 2350 331 
L 3163 331 
L 3163 0 
L 909 0 
z
" transform="scale(0.015625)"/>
       </defs>
       <use xlink:href="#DejaVuSerif-31"/>
       <use xlink:href="#DejaVuSerif-2e" transform="translate(63.623047 0)"/>
       <use xlink:href="#DejaVuSerif-30" transform="translate(95.410156 0)"/>
      </g>
     </g>
    </g>
   </g>
   <g id="line2d_11">
    <path d="M 345.134628 312.685812 
L 311.953323 197.646016 
L 247.09402 292.719982 
L 266.774875 318.352665 
L 328.347481 478.181637 
L 345.134628 312.685812 
" clip-path="url(#p8e96157664)" style="fill: none; stroke: #2e86ab; stroke-width: 2.5; stroke-linecap: square"/>
    <defs>
     <path id="mea1be77445" d="M 0 4 
C 1.060812 4 2.078319 3.578535 2.828427 2.828427 
C 3.578535 2.078319 4 1.060812 4 0 
C 4 -1.060812 3.578535 -2.078319 2.828427 -2.828427 
C 2.078319 -3.578535 1.060812 -4 0 -4 
C -1.060812 -4 -2.078319 -3.578535 -2.828427 -2.828427 
C -3.578535 -2.078319 -4 -1.060812 -4 0 
C -4 1.060812 -3.578535 2.078319 -2.828427 2.828427 
C -2.078319 3.578535 -1.060812 4 0 4 
z
" style="stroke: #2e86ab"/>
    </defs>
    <g clip-path="url(#p8e96157664)">
     <use xlink:href="#mea1be77445" x="345.134628" y="312.685812" style="fill: #2e86ab; stroke: #2e86ab"/>
     <use xlink:href="#mea1be77445" x="311.953323" y="197.646016" style="fill: #2e86ab; stroke: #2e86ab"/>
     <use xlink:href="#mea1be77445" x="247.09402" y="292.719982" style="fill: #2e86ab; stroke: #2e86ab"/>
     <use xlink:href="#mea1be77445" x="266.774875" y="318.352665" style="fill: #2e86ab; stroke: #2e86ab"/>
     <use xlink:href="#mea1be77445" x="328.347481" y="478.181637" style="fill: #2e86ab; stroke: #2e86ab"/>
     <use xlink:href="#mea1be77445" x="345.134628" y="312.685812" style="fill: #2e86ab; stroke: #2e86ab"/>
    </g>
   </g>
   <g id="line2d_12">
    <path d="M 300.252102 312.685812 
L 276.738658 306.025614 
L 227.174591 278.24767 
L 261.709408 322.032942 
L 340.321158 515.032825 
L 300.252102 312.685812 
" clip-path="url(#p8e96157664)" style="fill: none; stroke: #a23b72; stroke-width: 2.5; stroke-linecap: square"/>
    <defs>
     <path id="m3aa0848141" d="M -4 4 
L 4 4 
L 4 -4 
L -4 -4 
z
" style="stroke: #a23b72; stroke-linejoin: miter"/>
    </defs>
    <g clip-path="url(#p8e96157664)">
     <use xlink:href="#m3aa0848141" x="300.252102" y="312.685812" style="fill: #a23b72; stroke: #a23b72; stroke-linejoin: miter"/>
     <use xlink:href="#m3aa0848141" x="276.738658" y="306.025614" style="fill: #a23b72; stroke: #a23b72; stroke-linejoin: miter"/>
     <use xlink:href="#m3aa0848141" x="227.174591" y="278.24767" style="fill: #a23b72; stroke: #a23b72; stroke-linejoin: miter"/>
     <use xlink:href="#m3aa0848141" x="261.709408" y="322.032942" style="fill: #a23b72; stroke: #a23b72; stroke-linejoin: miter"/>
     <use xlink:href="#m3aa0848141" x="340.321158" y="515.032825" style="fill: #a23b72; stroke: #a23b72; stroke-linejoin: miter"/>
     <use xlink:href="#m3aa0848141" x="300.252102" y="312.685812" style="fill: #a23b72; stroke: #a23b72; stroke-linejoin: miter"/>
    </g>
   </g>
   <g id="line2d_13">
    <path d="M 338.298766 312.685812 
L 295.054143 249.656346 
L 235.992572 284.654308 
L 267.292186 317.976816 
L 328.217294 477.780963 
L 338.298766 312.685812 
" clip-path="url(#p8e96157664)" style="fill: none; stroke: #f18f01; stroke-width: 2.5; stroke-linecap: square"/>
    <defs>
     <path id="ma1bd4cfdd3" d="M 0 -4 
L -4 4 
L 4 4 
z
" style="stroke: #f18f01; stroke-linejoin: miter"/>
    </defs>
    <g clip-path="url(#p8e96157664)">
     <use xlink:href="#ma1bd4cfdd3" x="338.298766" y="312.685812" style="fill: #f18f01; stroke: #f18f01; stroke-linejoin: miter"/>
     <use xlink:href="#ma1bd4cfdd3" x="295.054143" y="249.656346" style="fill: #f18f01; stroke: #f18f01; stroke-linejoin: miter"/>
     <use xlink:href="#ma1bd4cfdd3" x="235.992572" y="284.654308" style="fill: #f18f01; stroke: #f18f01; stroke-linejoin: miter"/>
     <use xlink:href="#ma1bd4cfdd3" x="267.292186" y="317.976816" style="fill: #f18f01; stroke: #f18f01; stroke-linejoin: miter"/>
     <use xlink:href="#ma1bd4cfdd3" x="328.217294" y="477.780963" style="fill: #f18f01; stroke: #f18f01; stroke-linejoin: miter"/>
     <use xlink:href="#ma1bd4cfdd3" x="338.298766" y="312.685812" style="fill: #f18f01; stroke: #f18f01; stroke-linejoin: miter"/>
    </g>
   </g>
   <g id="patch_6">
    <path d="M 496.334628 312.685812 
C 496.334628 283.564556 490.598375 254.726467 479.454153 227.821935 
C 468.309931 200.917402 451.974466 176.469651 431.382628 155.877813 
C 410.79079 135.285975 386.343039 118.95051 359.438506 107.806287 
C 332.533973 96.662065 303.695884 90.925812 274.574628 90.925812 
C 245.453371 90.925812 216.615283 96.662065 189.71075 107.806287 
C 162.806217 118.95051 138.358466 135.285975 117.766628 155.877813 
C 97.17479 176.469651 80.839325 200.917402 69.695103 227.821935 
C 58.55088 254.726467 52.814628 283.564556 52.814628 312.685812 
C 52.814628 341.807069 58.55088 370.645158 69.695103 397.54969 
C 80.839325 424.454223 97.17479 448.901974 117.766628 469.493812 
C 138.358466 490.08565 162.806217 506.421115 189.71075 517.565338 
C 216.615283 528.70956 245.453371 534.445812 274.574628 534.445812 
C 303.695884 534.445812 332.533973 528.70956 359.438506 517.565338 
C 386.343039 506.421115 410.79079 490.08565 431.382628 469.493812 
C 451.974466 448.901974 468.309931 424.454223 479.454153 397.54969 
C 490.598375 370.645158 496.334628 341.807069 496.334628 312.685812 
" style="fill: none; stroke: #000000; stroke-width: 0.8; stroke-linejoin: miter; stroke-linecap: square"/>
   </g>
   <g id="text_11">
    <!-- Profilo di Criticità Comparativo dei Tool -->
    <g transform="translate(117.376503 18.397812) scale(0.14 -0.14)">
     <defs>
      <path id="DejaVuSerif-Bold-50" d="M 300 0 
L 300 378 
L 897 378 
L 897 4288 
L 300 4288 
L 300 4666 
L 2956 4666 
Q 3734 4666 4193 4295 
Q 4653 3925 4653 3303 
Q 4653 2678 4192 2304 
Q 3731 1931 2956 1931 
L 2100 1931 
L 2100 378 
L 2853 378 
L 2853 0 
L 300 0 
z
M 2100 2309 
L 2450 2309 
Q 2856 2309 3098 2579 
Q 3341 2850 3341 3303 
Q 3341 3753 3100 4020 
Q 2859 4288 2450 4288 
L 2100 4288 
L 2100 2309 
z
" transform="scale(0.015625)"/>
      <path id="DejaVuSerif-Bold-72" d="M 3438 3359 
L 3438 2369 
L 3084 2369 
Q 3066 2634 2941 2764 
Q 2816 2894 2578 2894 
Q 2216 2894 2006 2575 
Q 1797 2256 1797 1691 
L 1797 378 
L 2400 378 
L 2400 0 
L 219 0 
L 219 378 
L 691 378 
L 691 2944 
L 184 2944 
L 184 3322 
L 1797 3322 
L 1797 2731 
Q 1959 3078 2226 3245 
Q 2494 3413 2881 3413 
Q 2978 3413 3117 3398 
Q 3256 3384 3438 3359 
z
" transform="scale(0.015625)"/>
      <path id="DejaVuSerif-Bold-66" d="M 3097 4031 
L 2747 4031 
Q 2722 4275 2605 4394 
Q 2488 4513 2272 4513 
Q 2022 4513 1909 4333 
Q 1797 4153 1797 3750 
L 1797 3322 
L 2631 3322 
L 2631 2944 
L 1797 2944 
L 1797 378 
L 2438 378 
L 2438 0 
L 219 0 
L 219 378 
L 691 378 
L 691 2944 
L 197 2944 
L 197 3322 
L 691 3322 
L 691 3738 
Q 691 4291 1044 4577 
Q 1397 4863 2081 4863 
Q 2347 4863 2600 4833 
Q 2853 4803 3097 4744 
L 3097 4031 
z
" transform="scale(0.015625)"/>
      <path id="DejaVuSerif-Bold-64" d="M 2747 1497 
L 2747 1825 
Q 2747 2406 2597 2665 
Q 2447 2925 2119 2925 
Q 1775 2925 1636 2651 
Q 1497 2378 1497 1663 
Q 1497 947 1637 672 
Q 1778 397 2119 397 
Q 2447 397 2597 656 
Q 2747 916 2747 1497 
z
M 3853 378 
L 4325 378 
L 4325 0 
L 2747 0 
L 2747 422 
Q 2606 163 2367 36 
Q 2128 -91 1778 -91 
Q 1072 -91 667 378 
Q 263 847 263 1663 
Q 263 2481 667 2947 
Q 1072 3413 1778 3413 
Q 2128 3413 2367 3286 
Q 2606 3159 2747 2900 
L 2747 4488 
L 2272 4488 
L 2272 4863 
L 3853 4863 
L 3853 378 
z
" transform="scale(0.015625)"/>
      <path id="DejaVuSerif-Bold-63" d="M 3609 1038 
Q 3491 469 3123 189 
Q 2756 -91 2125 -91 
Q 1238 -91 750 368 
Q 263 828 263 1663 
Q 263 2488 744 2950 
Q 1225 3413 2081 3413 
Q 2428 3413 2781 3347 
Q 3134 3281 3500 3150 
L 3500 2228 
L 3150 2228 
Q 3100 2650 2903 2854 
Q 2706 3059 2350 3059 
Q 1888 3059 1692 2746 
Q 1497 2434 1497 1663 
Q 1497 909 1687 586 
Q 1878 263 2309 263 
Q 2644 263 2845 463 
Q 3047 663 3091 1038 
L 3609 1038 
z
" transform="scale(0.015625)"/>
      <path id="DejaVuSerif-Bold-e0" d="M 3525 2041 
L 3525 378 
L 4000 378 
L 4000 0 
L 2419 0 
L 2419 422 
Q 2200 159 1931 34 
Q 1663 -91 1319 -91 
Q 809 -91 536 182 
Q 263 456 263 966 
Q 263 1525 655 1803 
Q 1047 2081 1838 2081 
L 2419 2081 
L 2419 2278 
Q 2419 2681 2228 2873 
Q 2038 3066 1638 3066 
Q 1306 3066 1126 2930 
Q 947 2794 872 2484 
L 519 2484 
L 519 3200 
Q 816 3306 1134 3359 
Q 1453 3413 1806 3413 
Q 2697 3413 3111 3081 
Q 3525 2750 3525 2041 
z
M 2419 1044 
L 2419 1709 
L 2003 1709 
Q 1694 1709 1528 1540 
Q 1363 1372 1363 1056 
Q 1363 741 1483 584 
Q 1603 428 1850 428 
Q 2106 428 2262 597 
Q 2419 766 2419 1044 
z
M 1585 5119 
L 2391 3944 
L 1878 3944 
L 713 5119 
L 1585 5119 
z
" transform="scale(0.015625)"/>
      <path id="DejaVuSerif-Bold-76" d="M 1428 0 
L 250 2944 
L -116 2944 
L -116 3322 
L 1791 3322 
L 1791 2944 
L 1388 2944 
L 2228 844 
L 3066 2944 
L 2631 2944 
L 2631 3322 
L 3878 3322 
L 3878 2944 
L 3494 2944 
L 2316 0 
L 1428 0 
z
" transform="scale(0.015625)"/>
     </defs>
     <use xlink:href="#DejaVuSerif-Bold-50"/>
     <use xlink:href="#DejaVuSerif-Bold-72" transform="translate(75.195312 0)"/>
     <use xlink:href="#DejaVuSerif-Bold-6f" transform="translate(127.880859 0)"/>
     <use xlink:href="#DejaVuSerif-Bold-66" transform="translate(194.580078 0)"/>
     <use xlink:href="#DejaVuSerif-Bold-69" transform="translate(237.597656 0)"/>
     <use xlink:href="#DejaVuSerif-Bold-6c" transform="translate(275.585938 0)"/>
     <use xlink:href="#DejaVuSerif-Bold-6f" transform="translate(313.574219 0)"/>
     <use xlink:href="#DejaVuSerif-Bold-20" transform="translate(380.273438 0)"/>
     <use xlink:href="#DejaVuSerif-Bold-64" transform="translate(415.087891 0)"/>
     <use xlink:href="#DejaVuSerif-Bold-69" transform="translate(485.009766 0)"/>
     <use xlink:href="#DejaVuSerif-Bold-20" transform="translate(522.998047 0)"/>
     <use xlink:href="#DejaVuSerif-Bold-43" transform="translate(557.8125 0)"/>
     <use xlink:href="#DejaVuSerif-Bold-72" transform="translate(637.402344 0)"/>
     <use xlink:href="#DejaVuSerif-Bold-69" transform="translate(690.087891 0)"/>
     <use xlink:href="#DejaVuSerif-Bold-74" transform="translate(728.076172 0)"/>
     <use xlink:href="#DejaVuSerif-Bold-69" transform="translate(774.267578 0)"/>
     <use xlink:href="#DejaVuSerif-Bold-63" transform="translate(812.255859 0)"/>
     <use xlink:href="#DejaVuSerif-Bold-69" transform="translate(873.144531 0)"/>
     <use xlink:href="#DejaVuSerif-Bold-74" transform="translate(911.132812 0)"/>
     <use xlink:href="#DejaVuSerif-Bold-e0" transform="translate(957.324219 0)"/>
     <use xlink:href="#DejaVuSerif-Bold-20" transform="translate(1022.119141 0)"/>
     <use xlink:href="#DejaVuSerif-Bold-43" transform="translate(1056.933594 0)"/>
     <use xlink:href="#DejaVuSerif-Bold-6f" transform="translate(1136.523438 0)"/>
     <use xlink:href="#DejaVuSerif-Bold-6d" transform="translate(1203.222656 0)"/>
     <use xlink:href="#DejaVuSerif-Bold-70" transform="translate(1309.033203 0)"/>
     <use xlink:href="#DejaVuSerif-Bold-61" transform="translate(1378.955078 0)"/>
     <use xlink:href="#DejaVuSerif-Bold-72" transform="translate(1443.75 0)"/>
     <use xlink:href="#DejaVuSerif-Bold-61" transform="translate(1496.435547 0)"/>
     <use xlink:href="#DejaVuSerif-Bold-74" transform="translate(1561.230469 0)"/>
     <use xlink:href="#DejaVuSerif-Bold-69" transform="translate(1607.421875 0)"/>
     <use xlink:href="#DejaVuSerif-Bold-76" transform="translate(1645.410156 0)"/>
     <use xlink:href="#DejaVuSerif-Bold-6f" transform="translate(1703.515625 0)"/>
     <use xlink:href="#DejaVuSerif-Bold-20" transform="translate(1770.214844 0)"/>
     <use xlink:href="#DejaVuSerif-Bold-64" transform="translate(1805.029297 0)"/>
     <use xlink:href="#DejaVuSerif-Bold-65" transform="translate(1874.951172 0)"/>
     <use xlink:href="#DejaVuSerif-Bold-69" transform="translate(1938.574219 0)"/>
     <use xlink:href="#DejaVuSerif-Bold-20" transform="translate(1976.5625 0)"/>
     <use xlink:href="#DejaVuSerif-Bold-54" transform="translate(2011.376953 0)"/>
     <use xlink:href="#DejaVuSerif-Bold-6f" transform="translate(2074.291016 0)"/>
     <use xlink:href="#DejaVuSerif-Bold-6f" transform="translate(2140.990234 0)"/>
     <use xlink:href="#DejaVuSerif-Bold-6c" transform="translate(2207.689453 0)"/>
    </g>
   </g>
   <g id="legend_1">
    <g id="patch_7">
     <path d="M 453.830815 98.608187 
L 578.038628 98.608187 
Q 580.038628 98.608187 580.038628 96.608187 
L 580.038628 53.573812 
Q 580.038628 51.573812 578.038628 51.573812 
L 453.830815 51.573812 
Q 451.830815 51.573812 451.830815 53.573812 
L 451.830815 96.608187 
Q 451.830815 98.608187 453.830815 98.608187 
z
" style="fill: #ffffff; opacity: 0.8; stroke: #cccccc; stroke-linejoin: miter"/>
    </g>
    <g id="line2d_14">
     <path d="M 455.830815 59.67225 
L 465.830815 59.67225 
L 475.830815 59.67225 
" style="fill: none; stroke: #2e86ab; stroke-width: 2.5; stroke-linecap: square"/>
     <g>
      <use xlink:href="#mea1be77445" x="465.830815" y="59.67225" style="fill: #2e86ab; stroke: #2e86ab"/>
     </g>
    </g>
    <g id="text_12">
     <!-- ScenarioFuzzLLM -->
     <g transform="translate(483.830815 63.17225) scale(0.1 -0.1)">
      <defs>
       <path id="DejaVuSerif-53" d="M 594 225 
L 594 1288 
L 953 1284 
Q 969 753 1261 498 
Q 1553 244 2150 244 
Q 2706 244 2998 464 
Q 3291 684 3291 1106 
Q 3291 1444 3114 1625 
Q 2938 1806 2369 1978 
L 1753 2163 
Q 1084 2366 811 2669 
Q 538 2972 538 3500 
Q 538 4094 959 4422 
Q 1381 4750 2144 4750 
Q 2469 4750 2856 4679 
Q 3244 4609 3681 4475 
L 3681 3481 
L 3328 3481 
Q 3275 3975 2998 4195 
Q 2722 4416 2156 4416 
Q 1663 4416 1405 4214 
Q 1147 4013 1147 3628 
Q 1147 3294 1340 3103 
Q 1534 2913 2163 2725 
L 2741 2553 
Q 3375 2363 3645 2067 
Q 3916 1772 3916 1275 
Q 3916 597 3481 253 
Q 3047 -91 2188 -91 
Q 1803 -91 1404 -12 
Q 1006 66 594 225 
z
" transform="scale(0.015625)"/>
       <path id="DejaVuSerif-63" d="M 3291 997 
Q 3169 466 2822 187 
Q 2475 -91 1925 -91 
Q 1200 -91 759 389 
Q 319 869 319 1663 
Q 319 2459 759 2936 
Q 1200 3413 1925 3413 
Q 2241 3413 2553 3339 
Q 2866 3266 3181 3116 
L 3181 2266 
L 2847 2266 
Q 2781 2703 2561 2903 
Q 2341 3103 1931 3103 
Q 1466 3103 1228 2742 
Q 991 2381 991 1663 
Q 991 944 1227 581 
Q 1463 219 1931 219 
Q 2303 219 2525 412 
Q 2747 606 2828 997 
L 3291 997 
z
" transform="scale(0.015625)"/>
       <path id="DejaVuSerif-65" d="M 3469 1600 
L 991 1600 
L 991 1575 
Q 991 903 1244 561 
Q 1497 219 1991 219 
Q 2369 219 2611 417 
Q 2853 616 2950 1006 
L 3413 1006 
Q 3275 459 2904 184 
Q 2534 -91 1931 -91 
Q 1203 -91 761 389 
Q 319 869 319 1663 
Q 319 2450 753 2931 
Q 1188 3413 1894 3413 
Q 2647 3413 3050 2948 
Q 3453 2484 3469 1600 
z
M 2791 1931 
Q 2772 2513 2545 2808 
Q 2319 3103 1894 3103 
Q 1497 3103 1269 2806 
Q 1041 2509 991 1931 
L 2791 1931 
z
" transform="scale(0.015625)"/>
       <path id="DejaVuSerif-6e" d="M 263 0 
L 263 331 
L 781 331 
L 781 2988 
L 231 2988 
L 231 3322 
L 1356 3322 
L 1356 2731 
Q 1516 3069 1770 3241 
Q 2025 3413 2363 3413 
Q 2913 3413 3172 3097 
Q 3431 2781 3431 2113 
L 3431 331 
L 3944 331 
L 3944 0 
L 2356 0 
L 2356 331 
L 2853 331 
L 2853 1931 
Q 2853 2541 2703 2767 
Q 2553 2994 2175 2994 
Q 1775 2994 1565 2701 
Q 1356 2409 1356 1850 
L 1356 331 
L 1856 331 
L 1856 0 
L 263 0 
z
" transform="scale(0.015625)"/>
       <path id="DejaVuSerif-61" d="M 2547 1044 
L 2547 1747 
L 1806 1747 
Q 1378 1747 1168 1562 
Q 959 1378 959 997 
Q 959 650 1171 447 
Q 1384 244 1747 244 
Q 2106 244 2326 466 
Q 2547 688 2547 1044 
z
M 3122 2075 
L 3122 331 
L 3634 331 
L 3634 0 
L 2547 0 
L 2547 359 
Q 2356 128 2106 18 
Q 1856 -91 1522 -91 
Q 969 -91 644 203 
Q 319 497 319 997 
Q 319 1513 691 1797 
Q 1063 2081 1741 2081 
L 2547 2081 
L 2547 2309 
Q 2547 2688 2317 2895 
Q 2088 3103 1672 3103 
Q 1328 3103 1125 2947 
Q 922 2791 872 2484 
L 575 2484 
L 575 3156 
Q 875 3284 1158 3348 
Q 1441 3413 1709 3413 
Q 2400 3413 2761 3070 
Q 3122 2728 3122 2075 
z
" transform="scale(0.015625)"/>
       <path id="DejaVuSerif-72" d="M 3059 3328 
L 3059 2497 
L 2728 2497 
Q 2713 2744 2591 2866 
Q 2469 2988 2234 2988 
Q 1809 2988 1582 2694 
Q 1356 2400 1356 1850 
L 1356 331 
L 2022 331 
L 2022 0 
L 263 0 
L 263 331 
L 781 331 
L 781 2994 
L 231 2994 
L 231 3322 
L 1356 3322 
L 1356 2731 
Q 1525 3078 1790 3245 
Q 2056 3413 2438 3413 
Q 2578 3413 2733 3391 
Q 2888 3369 3059 3328 
z
" transform="scale(0.015625)"/>
       <path id="DejaVuSerif-69" d="M 622 4353 
Q 622 4497 726 4603 
Q 831 4709 978 4709 
Q 1122 4709 1226 4603 
Q 1331 4497 1331 4353 
Q 1331 4206 1228 4103 
Q 1125 4000 978 4000 
Q 831 4000 726 4103 
Q 622 4206 622 4353 
z
M 1356 331 
L 1900 331 
L 1900 0 
L 231 0 
L 231 331 
L 781 331 
L 781 2988 
L 231 2988 
L 231 3322 
L 1356 3322 
L 1356 331 
z
" transform="scale(0.015625)"/>
       <path id="DejaVuSerif-6f" d="M 1925 219 
Q 2388 219 2623 584 
Q 2859 950 2859 1663 
Q 2859 2375 2623 2739 
Q 2388 3103 1925 3103 
Q 1463 3103 1227 2739 
Q 991 2375 991 1663 
Q 991 950 1228 584 
Q 1466 219 1925 219 
z
M 1925 -91 
Q 1200 -91 759 389 
Q 319 869 319 1663 
Q 319 2456 758 2934 
Q 1197 3413 1925 3413 
Q 2653 3413 3092 2934 
Q 3531 2456 3531 1663 
Q 3531 869 3092 389 
Q 2653 -91 1925 -91 
z
" transform="scale(0.015625)"/>
       <path id="DejaVuSerif-46" d="M 353 0 
L 353 331 
L 947 331 
L 947 4331 
L 353 4331 
L 353 4666 
L 4172 4666 
L 4172 3628 
L 3788 3628 
L 3788 4281 
L 1581 4281 
L 1581 2719 
L 3175 2719 
L 3175 3303 
L 3559 3303 
L 3559 1753 
L 3175 1753 
L 3175 2338 
L 1581 2338 
L 1581 331 
L 2328 331 
L 2328 0 
L 353 0 
z
" transform="scale(0.015625)"/>
       <path id="DejaVuSerif-75" d="M 2266 3322 
L 3341 3322 
L 3341 331 
L 3884 331 
L 3884 0 
L 2766 0 
L 2766 588 
Q 2606 256 2353 82 
Q 2100 -91 1766 -91 
Q 1213 -91 952 223 
Q 691 538 691 1209 
L 691 2988 
L 172 2988 
L 172 3322 
L 1269 3322 
L 1269 1388 
Q 1269 781 1417 556 
Q 1566 331 1947 331 
Q 2347 331 2556 625 
Q 2766 919 2766 1478 
L 2766 2988 
L 2266 2988 
L 2266 3322 
z
" transform="scale(0.015625)"/>
       <path id="DejaVuSerif-7a" d="M 256 0 
L 256 269 
L 2338 2988 
L 691 2988 
L 691 2413 
L 359 2413 
L 359 3322 
L 3078 3322 
L 3078 3053 
L 997 331 
L 2803 331 
L 2803 934 
L 3138 934 
L 3138 0 
L 256 0 
z
" transform="scale(0.015625)"/>
       <path id="DejaVuSerif-4c" d="M 353 0 
L 353 331 
L 947 331 
L 947 4331 
L 353 4331 
L 353 4666 
L 2175 4666 
L 2175 4331 
L 1581 4331 
L 1581 384 
L 3713 384 
L 3713 1166 
L 4097 1166 
L 4097 0 
L 353 0 
z
" transform="scale(0.015625)"/>
       <path id="DejaVuSerif-4d" d="M 353 0 
L 353 331 
L 947 331 
L 947 4331 
L 319 4331 
L 319 4666 
L 1678 4666 
L 3316 1344 
L 4953 4666 
L 6228 4666 
L 6228 4331 
L 5606 4331 
L 5606 331 
L 6203 331 
L 6203 0 
L 4378 0 
L 4378 331 
L 4972 331 
L 4972 3938 
L 3372 684 
L 2931 684 
L 1331 3938 
L 1331 331 
L 1925 331 
L 1925 0 
L 353 0 
z
" transform="scale(0.015625)"/>
      </defs>
      <use xlink:href="#DejaVuSerif-53"/>
      <use xlink:href="#DejaVuSerif-63" transform="translate(68.505859 0)"/>
      <use xlink:href="#DejaVuSerif-65" transform="translate(124.511719 0)"/>
      <use xlink:href="#DejaVuSerif-6e" transform="translate(183.691406 0)"/>
      <use xlink:href="#DejaVuSerif-61" transform="translate(248.095703 0)"/>
      <use xlink:href="#DejaVuSerif-72" transform="translate(307.714844 0)"/>
      <use xlink:href="#DejaVuSerif-69" transform="translate(355.517578 0)"/>
      <use xlink:href="#DejaVuSerif-6f" transform="translate(387.5 0)"/>
      <use xlink:href="#DejaVuSerif-46" transform="translate(447.705078 0)"/>
      <use xlink:href="#DejaVuSerif-75" transform="translate(517.089844 0)"/>
      <use xlink:href="#DejaVuSerif-7a" transform="translate(581.494141 0)"/>
      <use xlink:href="#DejaVuSerif-7a" transform="translate(634.179688 0)"/>
      <use xlink:href="#DejaVuSerif-4c" transform="translate(686.865234 0)"/>
      <use xlink:href="#DejaVuSerif-4c" transform="translate(753.271484 0)"/>
      <use xlink:href="#DejaVuSerif-4d" transform="translate(819.677734 0)"/>
     </g>
    </g>
    <g id="line2d_15">
     <path d="M 455.830815 74.350375 
L 465.830815 74.350375 
L 475.830815 74.350375 
" style="fill: none; stroke: #a23b72; stroke-width: 2.5; stroke-linecap: square"/>
     <g>
      <use xlink:href="#m3aa0848141" x="465.830815" y="74.350375" style="fill: #a23b72; stroke: #a23b72; stroke-linejoin: miter"/>
     </g>
    </g>
    <g id="text_13">
     <!-- SimADFuzz -->
     <g transform="translate(483.830815 77.850375) scale(0.1 -0.1)">
      <defs>
       <path id="DejaVuSerif-6d" d="M 3316 2675 
Q 3481 3041 3739 3227 
Q 3997 3413 4341 3413 
Q 4863 3413 5119 3089 
Q 5375 2766 5375 2113 
L 5375 331 
L 5894 331 
L 5894 0 
L 4300 0 
L 4300 331 
L 4800 331 
L 4800 2047 
Q 4800 2556 4650 2772 
Q 4500 2988 4153 2988 
Q 3769 2988 3567 2697 
Q 3366 2406 3366 1850 
L 3366 331 
L 3866 331 
L 3866 0 
L 2291 0 
L 2291 331 
L 2791 331 
L 2791 2069 
Q 2791 2566 2641 2777 
Q 2491 2988 2144 2988 
Q 1759 2988 1557 2697 
Q 1356 2406 1356 1850 
L 1356 331 
L 1856 331 
L 1856 0 
L 263 0 
L 263 331 
L 781 331 
L 781 2994 
L 231 2994 
L 231 3322 
L 1356 3322 
L 1356 2731 
Q 1516 3063 1762 3238 
Q 2009 3413 2322 3413 
Q 2709 3413 2968 3220 
Q 3228 3028 3316 2675 
z
" transform="scale(0.015625)"/>
       <path id="DejaVuSerif-41" d="M 1281 1691 
L 2994 1691 
L 2138 3909 
L 1281 1691 
z
M -38 0 
L -38 331 
L 372 331 
L 2034 4666 
L 2559 4666 
L 4225 331 
L 4684 331 
L 4684 0 
L 2988 0 
L 2988 331 
L 3506 331 
L 3116 1356 
L 1153 1356 
L 763 331 
L 1275 331 
L 1275 0 
L -38 0 
z
" transform="scale(0.015625)"/>
       <path id="DejaVuSerif-44" d="M 1581 331 
L 2163 331 
Q 3072 331 3558 850 
Q 4044 1369 4044 2338 
Q 4044 3306 3559 3818 
Q 3075 4331 2163 4331 
L 1581 4331 
L 1581 331 
z
M 353 0 
L 353 331 
L 947 331 
L 947 4331 
L 353 4331 
L 353 4666 
L 2209 4666 
Q 3416 4666 4089 4050 
Q 4763 3434 4763 2338 
Q 4763 1238 4088 619 
Q 3413 0 2209 0 
L 353 0 
z
" transform="scale(0.015625)"/>
      </defs>
      <use xlink:href="#DejaVuSerif-53"/>
      <use xlink:href="#DejaVuSerif-69" transform="translate(68.505859 0)"/>
      <use xlink:href="#DejaVuSerif-6d" transform="translate(100.488281 0)"/>
      <use xlink:href="#DejaVuSerif-41" transform="translate(195.3125 0)"/>
      <use xlink:href="#DejaVuSerif-44" transform="translate(267.529297 0)"/>
      <use xlink:href="#DejaVuSerif-46" transform="translate(347.705078 0)"/>
      <use xlink:href="#DejaVuSerif-75" transform="translate(417.089844 0)"/>
      <use xlink:href="#DejaVuSerif-7a" transform="translate(481.494141 0)"/>
      <use xlink:href="#DejaVuSerif-7a" transform="translate(534.179688 0)"/>
     </g>
    </g>
    <g id="line2d_16">
     <path d="M 455.830815 89.0285 
L 465.830815 89.0285 
L 475.830815 89.0285 
" style="fill: none; stroke: #f18f01; stroke-width: 2.5; stroke-linecap: square"/>
     <g>
      <use xlink:href="#ma1bd4cfdd3" x="465.830815" y="89.0285" style="fill: #f18f01; stroke: #f18f01; stroke-linejoin: miter"/>
     </g>
    </g>
    <g id="text_14">
     <!-- TMFuzzer -->
     <g transform="translate(483.830815 92.5285) scale(0.1 -0.1)">
      <defs>
       <path id="DejaVuSerif-54" d="M 1222 0 
L 1222 331 
L 1819 331 
L 1819 4294 
L 447 4294 
L 447 3566 
L 63 3566 
L 63 4666 
L 4206 4666 
L 4206 3566 
L 3822 3566 
L 3822 4294 
L 2450 4294 
L 2450 331 
L 3047 331 
L 3047 0 
L 1222 0 
z
" transform="scale(0.015625)"/>
      </defs>
      <use xlink:href="#DejaVuSerif-54"/>
      <use xlink:href="#DejaVuSerif-4d" transform="translate(66.699219 0)"/>
      <use xlink:href="#DejaVuSerif-46" transform="translate(169.091797 0)"/>
      <use xlink:href="#DejaVuSerif-75" transform="translate(238.476562 0)"/>
      <use xlink:href="#DejaVuSerif-7a" transform="translate(302.880859 0)"/>
      <use xlink:href="#DejaVuSerif-7a" transform="translate(355.566406 0)"/>
      <use xlink:href="#DejaVuSerif-65" transform="translate(408.251953 0)"/>
      <use xlink:href="#DejaVuSerif-72" transform="translate(467.431641 0)"/>
     </g>
    </g>
   </g>
  </g>
 </g>
 <defs>
  <clipPath id="p8e96157664">
   <path d="M 496.334628 312.685812 
C 496.334628 283.564556 490.598375 254.726467 479.454153 227.821935 
C 468.309931 200.917402 451.974466 176.469651 431.382628 155.877813 
C 410.79079 135.285975 386.343039 118.95051 359.438506 107.806287 
C 332.533973 96.662065 303.695884 90.925812 274.574628 90.925812 
C 245.453371 90.925812 216.615283 96.662065 189.71075 107.806287 
C 162.806217 118.95051 138.358466 135.285975 117.766628 155.877813 
C 97.17479 176.469651 80.839325 200.917402 69.695103 227.821935 
C 58.55088 254.726467 52.814628 283.564556 52.814628 312.685812 
C 52.814628 341.807069 58.55088 370.645158 69.695103 397.54969 
C 80.839325 424.454223 97.17479 448.901974 117.766628 469.493812 
C 138.358466 490.08565 162.806217 506.421115 189.71075 517.565338 
C 216.615283 528.70956 245.453371 534.445812 274.574628 534.445812 
C 303.695884 534.445812 332.533973 528.70956 359.438506 517.565338 
C 386.343039 506.421115 410.79079 490.08565 431.382628 469.493812 
C 451.974466 448.901974 468.309931 424.454223 479.454153 397.54969 
C 490.598375 370.645158 496.334628 341.807069 496.334628 312.685812 
M 274.574628 312.685812 
C 274.574628 312.685812 274.574628 312.685812 274.574628 312.685812 
C 274.574628 312.685812 274.574628 312.685812 274.574628 312.685812 
C 274.574628 312.685812 274.574628 312.685812 274.574628 312.685812 
C 274.574628 312.685812 274.574628 312.685812 274.574628 312.685812 
C 274.574628 312.685812 274.574628 312.685812 274.574628 312.685812 
C 274.574628 312.685812 274.574628 312.685812 274.574628 312.685812 
C 274.574628 312.685812 274.574628 312.685812 274.574628 312.685812 
C 274.574628 312.685812 274.574628 312.685812 274.574628 312.685812 
C 274.574628 312.685812 274.574628 312.685812 274.574628 312.685812 
C 274.574628 312.685812 274.574628 312.685812 274.574628 312.685812 
C 274.574628 312.685812 274.574628 312.685812 274.574628 312.685812 
C 274.574628 312.685812 274.574628 312.685812 274.574628 312.685812 
C 274.574628 312.685812 274.574628 312.685812 274.574628 312.685812 
C 274.574628 312.685812 274.574628 312.685812 274.574628 312.685812 
C 274.574628 312.685812 274.574628 312.685812 274.574628 312.685812 
C 274.574628 312.685812 274.574628 312.685812 274.574628 312.685812 
z
"/>
  </clipPath>
 </defs>
</svg>
